<svg width="232" height="81" viewBox="0 0 232 81" fill="none" xmlns="http://www.w3.org/2000/svg">
<path fill-rule="evenodd" clip-rule="evenodd" d="M174.545 12.1157C171.546 11.6404 168.117 11.097 166.048 10.6172C158.84 8.94537 151.093 7.14867 145.851 6.97382C141.78 6.83804 136.854 9.20369 136.155 13.589C135.558 17.3318 138.35 18.996 141.359 19.2362C143.782 19.4296 145.499 18.2604 146.862 17.3318C148.18 16.4344 149.168 15.7617 150.143 16.7614C151.593 18.2458 147.159 26.9743 138.109 26.4855C133.135 26.2169 129.964 20.8977 130.222 15.9693C130.758 5.74809 139.033 -0.275991 150.42 0.103871C155.949 0.288273 163.486 2.51109 170.593 4.60755C176.358 6.30785 181.841 7.92504 185.743 8.3043C190.204 8.61217 191.007 8.21304 193.309 7.06937C193.608 6.92062 193.933 6.75927 194.294 6.58524C195.065 6.21431 196.02 7.77635 195.367 8.3043C192.105 10.9435 190.598 12.792 190.058 15.8547C189.291 20.2029 189.19 25.9466 189.097 31.2594C189.049 33.9662 189.004 36.5611 188.873 38.8027C188.13 51.6285 183.621 76.3762 165.3 75.6928C161.329 75.5447 157.331 72.4573 157.582 68.1859C157.823 64.0716 160.263 61.5013 163.667 61.5013C165.755 61.5013 167.445 63.0234 167.43 65.041C167.415 66.9209 165.607 68.0846 163.89 68.1859C163.088 69.6924 164.025 71.7904 166.645 71.7904C175.039 71.7904 177.585 57.0344 178.574 48.5606C178.785 46.7592 178.984 45.0506 179.239 43.5561C173.793 46.1977 168.677 46.9944 163.088 46.6312C162.281 47.8754 161.498 49.0885 160.735 50.2701C148.154 69.7555 141.107 80.6703 126.547 80.6703C118.507 80.6703 113.785 74.5787 114.17 69.0085C114.318 63.5253 118.805 58.9322 124.266 58.9322C125.138 58.9322 125.826 59.4143 125.826 60.166C125.941 61.2056 125.27 61.9551 124.432 62.8895C123.573 63.8473 122.54 64.9995 122.002 66.8577C121.187 69.6704 121.691 73.7351 125.826 74.6824C136.236 77.0677 144.264 62.1423 149.413 51.919C150.716 49.3319 151.881 47.0187 152.924 45.3226C144.316 43.0751 140.042 44.5371 133.186 47.0933C132.041 47.6958 130.597 46.168 131.403 45.0596C137.277 36.9843 148.975 36.0434 157.698 37.9757C163.167 29.8255 170.54 19.5095 179.283 12.9055C178.183 12.6922 176.451 12.4177 174.545 12.1157ZM186.474 13.6147C185.75 13.6361 185.001 13.6279 184.352 13.6208C184.063 13.6176 183.793 13.6147 183.555 13.6147C177.396 20.5797 171.29 31.6583 167.06 39.5647C171.082 40.6846 176.102 40.8133 179.779 38.8027C179.842 38.3545 179.906 37.9 179.97 37.4401C181.047 29.7057 182.339 20.4399 186.474 13.6147Z" fill="#E7F7EC"/>
<path fill-rule="evenodd" clip-rule="evenodd" d="M11.0361 17.7514C20.7423 6.25718 38.0038 1.22607 52.531 4.45435C66.5241 7.31157 76.6778 18.5129 76.6778 33.3269C76.6778 60.8091 48.0464 85.006 23.2515 72.2823C20.4323 74.6683 15.6741 77.5485 10.4394 78.0809C6.94416 78.4363 2.24717 77.7336 0.99091 74.3045C-1.1347 68.5025 5.52102 64.876 10.4393 64.876C14.389 64.876 17.4328 65.5312 19.7454 66.2213C23.7604 60.3123 25.8726 52.8972 27.8385 45.9956C28.0448 45.2714 28.2495 44.5526 28.4546 43.8419C33.3622 26.8398 37.1424 16.4076 48.3909 9.67619C46.2835 9.20996 44.0083 8.96752 41.5465 8.96752C29.0307 8.96752 18.0303 16.4209 14.8965 29.1648C12.9653 39.8112 16.6296 43.3551 18.6692 45.3277C19.6106 46.2381 20.2059 46.8139 19.7454 47.5987C16.3347 53.4109 -5.91497 38.3675 11.0361 17.7514ZM26.2913 68.7203C46.8365 76.7955 63.1492 52.4313 63.7686 34.6471C64.1056 24.8737 61.6128 14.7577 52.0462 10.7765C45.3026 16.1351 43.4043 23.8086 40.4698 35.6707L40.4694 35.6724C40.2114 36.7152 39.9454 37.7904 39.6674 38.8992C36.8997 49.9388 33.3369 59.583 26.2913 68.7203ZM16.0901 70.2868C8.82699 68.2351 4.62 70.888 5.05667 72.2823C5.49334 73.6767 8.18205 73.8801 10.0056 73.4592C12.4991 72.8838 15.5588 70.9451 16.0901 70.2868Z" fill="#E7F7EC"/>
<path fill-rule="evenodd" clip-rule="evenodd" d="M99.6619 53.45C96.6486 57.6052 92.233 61.2802 88.3164 62.1234C83.4756 63.1654 78.8041 61.2258 77.4135 56.2293C74.8468 47.6599 81.7388 36.088 90.4897 34.2042C94.8742 33.2603 99.0132 35.2531 98.91 40.1748C98.875 45.1593 94.0135 48.3063 89.6279 49.2504C87.8953 49.6234 86.2326 49.6952 84.4744 49.5014C84.5015 52.2383 85.8869 55.5359 88.9926 55.7779C93.8886 56.4056 98.0146 52.9853 101.301 47.8773C102.767 43.2076 103.817 40.9033 106.157 35.7759C106.835 33.9431 115.091 31.8683 114.176 34.2317C114.038 34.5888 113.672 35.41 113.175 36.5243C110.881 41.6729 105.798 53.0795 107.472 53.8758C109.969 55.064 114.974 47.7506 116.554 45.4089C116.24 43.7298 116.11 42.0654 116.141 40.3621C116.181 37.2064 117.189 30.8438 121.46 30.8438C123.521 30.8438 124.453 32.967 124.63 34.7228L124.648 34.7415C125.067 39.1733 122.09 43.8716 119.544 47.2553C120.972 49.3056 124.03 49.213 125.805 47.2553C127.563 45.6054 130.097 48.0383 128.323 49.7543C126.749 51.3281 124.527 52.1414 122.317 52.1414C120.444 52.1414 118.72 51.1657 117.627 49.5232C114.013 53.7856 109.016 59.6758 102.959 59.6758C99.7512 59.6758 98.8261 56.7752 99.6619 53.45ZM84.7561 46.8272C87.4989 47.3063 90.9676 45.049 92.6417 42.6616C93.7264 41.1146 94.0473 39.2439 92.7257 38.4552C89.992 36.8241 85.3483 44.2599 84.7561 46.8272Z" fill="#E7F7EC"/>
<path d="M205.917 21.6602C205.795 19.1714 203.595 17.1806 201.109 17.3023C198.629 17.4237 196.63 19.6327 196.751 22.1089C196.873 24.5925 199.08 26.5881 201.557 26.4668C204.042 26.3452 206.039 24.1469 205.917 21.6602Z" fill="#E7F7EC"/>
<path d="M209.54 33.1684C209.594 34.994 210.421 36.6494 212.337 37.0929C210.748 40.1494 202.959 53.4854 199.162 53.6714C195.679 53.6334 203.148 36.8624 204.52 33.9271C205.659 31.4897 197.29 33.1063 196.575 35.4464C193.001 42.1951 191.134 50.3987 190.76 52.6806C189.8 58.526 191.54 59.6822 193.852 59.569C203.053 59.1185 210.885 45.5837 216.107 36.3109L218.469 35.7471C218.286 36.2923 217.914 37.2002 217.443 38.3512C214.768 44.8815 208.887 59.2365 216.239 59.569C220.665 59.7692 224.241 55.9067 228.949 50.8219L228.949 50.821C229.479 50.2491 230.023 49.6618 230.583 49.063C231.976 47.5768 229.915 44.9726 228.52 46.514C227.783 47.3276 227.119 48.0744 226.518 48.7501C223.641 51.9853 222.213 53.5918 221.21 53.1017C218.92 51.9828 223.345 41.1499 225.554 35.7437C226.074 34.471 226.471 33.4984 226.628 33.025C226.782 32.5625 226.539 32.0678 226.068 31.9517C225.262 31.7548 223.927 31.5209 222.28 31.5834C219.538 31.6875 216.883 33.4907 216.883 33.4907C217.428 32.2794 217.839 31.0072 217.885 29.7005C217.953 27.7737 217.159 25.1362 214.835 25.215C211.351 25.333 209.454 30.2394 209.54 33.1684Z" fill="#E7F7EC"/>
</svg>
